<?xml version="1.0" encoding="UTF-8"?>
<svg width="150px" height="47px" viewBox="0 0 150 47" version="1.1" xmlns="http://www.w3.org/2000/svg" xmlns:xlink="http://www.w3.org/1999/xlink">
    <!-- Generator: Sketch 53.2 (72643) - https://sketchapp.com -->
    <title>reactconf</title>
    <desc>Created with Sketch.</desc>
    <defs>
        <linearGradient x1="100%" y1="50%" x2="0%" y2="50%" id="linearGradient-1">
            <stop stop-color="#33323E" offset="0%"></stop>
            <stop stop-color="#8478FF" offset="100%"></stop>
        </linearGradient>
    </defs>
    <g id="Page-1" stroke="none" stroke-width="1" fill="none" fill-rule="evenodd">
        <g id="reactconf" fill-rule="nonzero">
            <path d="M58.631068,21.7368932 L58.631068,0.292718447 L67.1373786,0.292718447 C72.0320388,0.292718447 74.8645631,3.03640777 74.8645631,7.29757282 C74.8645631,10.2305825 73.5058252,12.3553398 71.0533981,13.4024272 L75.6334951,21.7368932 L70.6004854,21.7368932 L66.5169903,14.1349515 L63.1893204,14.1349515 L63.1893204,21.7368932 L58.631068,21.7368932 Z M63.1893204,10.4912621 L66.2854369,10.4912621 C68.8951456,10.4912621 70.1694175,9.42378641 70.1694175,7.29757282 C70.1694175,5.16262136 68.8951456,4.00048544 66.2635922,4.00048544 L63.1907767,4.00048544 L63.1907767,10.4912621 L63.1893204,10.4912621 Z M76.438835,21.7368932 L76.438835,0.292718447 L90.9669903,0.292718447 L90.9669903,4.03106796 L80.9970874,4.03106796 L80.9970874,9.14126214 L90.2184466,9.14126214 L90.2184466,12.8796117 L80.9970874,12.8796117 L80.9970874,17.9985437 L91.0092233,17.9985437 L91.0092233,21.7368932 L76.438835,21.7368932 Z M96.6669903,21.7368932 L91.7825243,21.7368932 L99.2257282,0.292718447 L105.100485,0.292718447 L112.532039,21.7368932 L107.647573,21.7368932 L106.047087,16.8480583 L98.2674757,16.8480583 L96.6669903,21.7368932 Z M99.4252427,13.307767 L104.900971,13.307767 L102.247573,5.19320388 L102.078641,5.19320388 L99.4252427,13.307767 L99.4252427,13.307767 Z M131.487379,7.8 L126.876699,7.8 C126.528641,5.44514563 124.728641,4.01067961 122.233981,4.01067961 C118.896117,4.01067961 116.707282,6.55485437 116.707282,11.015534 C116.707282,15.6014563 118.928155,18.0203883 122.201942,18.0203883 C124.633981,18.0203883 126.444175,16.7009709 126.876699,14.4087379 L131.487379,14.4291262 C130.992233,18.3757282 127.655825,22.031068 122.129126,22.031068 C116.359223,22.031068 112.084951,18.0101942 112.084951,11.015534 C112.084951,4.00048544 116.433495,0 122.129126,0 C127.118447,0 130.887379,2.84854369 131.487379,7.8 L131.487379,7.8 Z M132.292718,4.03106796 L132.292718,0.292718447 L150,0.292718447 L150,4.03106796 L143.4,4.03106796 L143.4,21.7368932 L138.894175,21.7368932 L138.894175,4.03106796 L132.291262,4.03106796 L132.292718,4.03106796 Z M77.6548544,32.3708738 L73.0427184,32.3708738 C72.6961165,30.0160194 70.8961165,28.5815534 68.4,28.5815534 C65.0635922,28.5815534 62.873301,31.1257282 62.873301,35.5864078 C62.873301,40.1737864 65.0956311,42.5912621 68.3694175,42.5912621 C70.8014563,42.5912621 72.6116505,41.2718447 73.0441748,38.9796117 L77.6548544,39 C77.1597087,42.9466019 73.8218447,46.6019417 68.2951456,46.6019417 C62.526699,46.6019417 58.2524272,42.5825243 58.2524272,35.5864078 C58.2524272,28.5713592 62.5995146,24.5708738 68.2951456,24.5708738 C73.2859223,24.5708738 77.0548544,27.4194175 77.6548544,32.3723301 L77.6548544,32.3708738 Z M99.0932039,35.5864078 C99.0932039,42.6014563 94.7140777,46.6019417 88.9980583,46.6019417 C83.25,46.6019417 78.9029126,42.5708738 78.9029126,35.5864078 C78.9029126,28.5713592 83.25,24.5708738 88.9980583,24.5708738 C94.7140777,24.5708738 99.0932039,28.5713592 99.0932039,35.5864078 Z M94.4723301,35.5864078 C94.4723301,31.0427184 92.3024272,28.5815534 88.9966019,28.5815534 C85.6820388,28.5815534 83.5237864,31.0427184 83.5237864,35.5864078 C83.5237864,40.1300971 85.6820388,42.5912621 88.9980583,42.5912621 C92.3038835,42.5912621 94.4723301,40.1300971 94.4723301,35.5864078 Z M118.848058,24.8650485 L118.848058,46.3092233 L114.91165,46.3092233 L105.531553,32.8121359 L105.374272,32.8121359 L105.374272,46.3092233 L100.816019,46.3092233 L100.816019,24.8650485 L104.815049,24.8650485 L114.120874,38.3504854 L114.310194,38.3504854 L114.310194,24.8650485 L118.848058,24.8650485 L118.848058,24.8650485 Z M120.959709,46.3092233 L120.959709,24.8650485 L135.234466,24.8650485 L135.234466,28.6033981 L125.519417,28.6033981 L125.519417,33.7121359 L134.28932,33.7121359 L134.28932,37.4504854 L125.519417,37.4504854 L125.519417,46.3092233 L120.961165,46.3092233 L120.959709,46.3092233 Z" id="Shape" fill="url(#linearGradient-1)"></path>
            <path d="M23.2208738,46.6019417 C22.7315534,45.4762136 22.2626214,44.0737864 21.8432039,42.4179612 C21.168932,39.7645631 20.6475728,36.6116505 20.3053398,33.1514563 C21.5755744,32.6955743 22.8360491,32.2129426 24.0859223,31.7038835 C24.5038523,32.2772494 25.1799361,32.6047549 25.8889208,32.5772839 C26.5979056,32.549813 27.2466208,32.1709756 27.618932,31.5669903 C29.0199029,32.1436893 30.3961165,32.6737864 31.734466,33.1514563 C31.392233,36.6116505 30.8694175,39.7645631 30.1966019,42.4179612 C29.9063522,43.5888586 29.5464893,44.7413924 29.118932,45.8694175 C27.1921518,46.3638839 25.210073,46.6100532 23.2208738,46.6019417 Z M22.4009709,46.584466 C14.7291262,46.2932039 8.00825243,42.2927184 3.97864078,36.3262136 C7.21165049,36.8038835 12.8927184,35.7393204 19.5800971,33.407767 C20.1378641,38.9067961 21.1354369,43.5247573 22.4009709,46.584466 Z M3.4223301,35.461165 C2.93071928,34.6600854 2.48815883,33.8299198 2.09708738,32.9752427 C2.68834951,31.6033981 4.32669903,29.7218447 6.92912621,27.5956311 C8.64747298,26.2097511 10.4436042,24.9231882 12.3087379,23.742233 C14.5420221,25.1455996 16.8344161,26.4526237 19.1796117,27.6597087 C19.2495146,29.3796117 19.3601942,31.0470874 19.5072816,32.6432039 C16.2276699,33.7936893 13.1490291,34.6543689 10.4606796,35.165534 C7.30048544,35.765534 4.87718447,35.8339806 3.4223301,35.461165 L3.4223301,35.461165 Z M1.71407767,32.0868932 C0.578614566,29.2970459 -0.00354761445,26.3130319 -3.23366686e-16,23.3009709 C-3.23366686e-16,20.1932039 0.608737864,17.2281553 1.71262136,14.5150485 C3.07281553,16.9383495 6.6407767,20.0839806 11.615534,23.3009709 C6.6407767,26.5179612 3.07281553,29.6650485 1.71262136,32.0868932 L1.71407767,32.0868932 Z M2.09708738,13.626699 C2.48883495,12.768932 2.9315534,11.938835 3.42087379,11.1407767 C4.87718447,10.7679612 7.29757282,10.8349515 10.4592233,11.4364078 C12.618932,11.8470874 15.0320388,12.4834951 17.5980583,13.3150485 L17.5980583,13.3849515 C17.5980583,14.4436893 18.3669903,15.3218447 19.3776699,15.4893204 C19.2932039,16.6106796 19.2262136,17.7640777 19.1781553,18.942233 C16.8329598,20.149318 14.5405658,21.4563421 12.3072816,22.8597087 C10.4421479,21.6787535 8.64601667,20.3921907 6.9276699,19.0063107 C4.32524272,16.8800971 2.6868932,15 2.09708738,13.626699 Z M3.97718447,10.2771845 C8.00970874,4.30776699 14.7291262,0.307281553 22.4009709,0.0160194175 C21.2868932,2.70873786 20.381068,6.60728155 19.8,11.2529126 L19.7300971,11.2514563 C18.8359223,11.2514563 18.0713592,11.8004854 17.7538835,12.5796117 C11.8645631,10.6776699 6.91165049,9.84174757 3.97718447,10.2742718 L3.97718447,10.2771845 Z M23.2208738,0 L23.3009709,0 C25.3106796,0 27.2592233,0.254854369 29.118932,0.732524272 C29.4975728,1.71553398 29.8616505,2.87038835 30.1966019,4.18398058 C30.8694175,6.83737864 31.3907767,9.99029126 31.734466,13.4504854 C29.8907767,14.1101942 27.9757282,14.8645631 26.0199029,15.707767 C24.5781553,15.0873786 23.1597087,14.5135922 21.7747573,13.9907767 C22.0862154,12.9387155 21.5489353,11.8219539 20.5325243,11.4087379 C20.8631068,8.74660194 21.3043689,6.30582524 21.8432039,4.18398058 C22.2626214,2.52815534 22.7315534,1.12572816 23.2208738,0 Z M30.0087379,0.980097087 C35.2384247,2.55659496 39.7500146,5.91645407 42.7587379,10.4752427 C39.8461165,10.9252427 36.318932,11.8485437 32.4582524,13.1941748 C31.9572816,8.24417476 31.0995146,4.00776699 30.0087379,0.980097087 L30.0087379,0.980097087 Z M43.1970874,11.165534 C44.507767,13.3121359 45.4834951,15.6873786 46.0456311,18.2169903 C45.7383366,18.4852138 45.4266438,18.7483563 45.1106796,19.0063107 C43.3923328,20.3921907 41.5962016,21.6787535 39.731068,22.8597087 C37.4982596,21.4563785 35.2063522,20.1493547 32.8616505,18.942233 C32.7946428,17.2785232 32.6848978,15.6168098 32.5325243,13.9587379 C35.8121359,12.8082524 38.8907767,11.9475728 41.5805825,11.4364078 C42.1427184,11.3300971 42.6815534,11.2398058 43.1970874,11.165534 L43.1970874,11.165534 Z M46.2160194,19.0558252 C46.4694175,20.4334951 46.6019417,21.8519417 46.6019417,23.3009709 C46.6019417,24.75 46.4708738,26.1699029 46.2160194,27.5461165 C44.6199029,26.184466 42.6626214,24.75 40.4228155,23.3009709 C42.6640777,21.8519417 44.6199029,20.4174757 46.2160194,19.0558252 Z M46.0456311,28.3849515 C45.4911608,30.8763425 44.5286724,33.2589441 43.1970874,35.4364078 C42.6815534,35.3635922 42.1427184,35.2718447 41.5805825,35.165534 C38.8907767,34.6558252 35.8121359,33.7951456 32.5325243,32.6432039 C32.6796117,31.0470874 32.7902913,29.381068 32.8616505,27.6597087 C35.2063522,26.452587 37.4982596,25.1455633 39.731068,23.742233 C41.7553398,25.0383495 43.5699029,26.3359223 45.1106796,27.5956311 C45.4368932,27.8621359 45.75,28.1257282 46.0456311,28.3849515 L46.0456311,28.3849515 Z M42.7587379,36.1252427 C39.7502648,40.6845773 35.2386444,44.0449744 30.0087379,45.6218447 C31.0995146,42.5927184 31.9572816,38.357767 32.4582524,33.407767 C36.318932,34.7533981 39.8446602,35.676699 42.7587379,36.1252427 Z M27.9043689,30.061165 C29.3165219,29.4210831 30.7148965,28.7510286 32.0985437,28.0514563 C32.0340107,29.4981202 31.9368987,30.9431469 31.8072816,32.3854369 C30.4925719,31.9100282 29.1883788,31.4060251 27.8956311,30.8737864 C27.9503664,30.6059513 27.9533324,30.3301152 27.9043689,30.061165 L27.9043689,30.061165 Z M23.7567961,31.0325243 C22.5640777,31.5174757 21.3873786,31.968932 20.2325243,32.3854369 C20.1028853,30.9426624 20.0057732,29.4971499 19.9412621,28.05 C21.1980857,28.6864592 22.4672614,29.2982272 23.7480583,29.8849515 C23.6461798,30.2611039 23.6492016,30.6579668 23.7567961,31.0325243 L23.7567961,31.0325243 Z M24.0669903,29.2106796 C22.6659197,28.5685038 21.2787107,27.8965062 19.9063107,27.1951456 C19.8115218,24.5998944 19.8115218,22.0020474 19.9063107,19.4067961 C21.9131709,18.3803176 23.9520584,17.4176985 26.0199029,16.5203883 C28.0870788,17.4181185 30.1254679,18.3807316 32.1320388,19.4067961 C32.226829,22.0020474 32.226829,24.5998944 32.1320388,27.1951456 C30.6525065,27.9518589 29.1554961,28.6739005 27.642233,29.3606796 C27.2754835,28.7376144 26.6177864,28.3430511 25.8954313,28.3127446 C25.1730762,28.282438 24.4846407,28.6205241 24.0669903,29.2106796 L24.0669903,29.2106796 Z M20.1276699,15.4805825 C20.6606796,15.3786408 21.1237864,15.0800971 21.4383495,14.6621359 C22.6325243,15.1121359 23.85,15.5985437 25.0791262,16.1184466 C23.3455996,16.8842053 21.6323928,17.6951621 19.9412621,18.5504854 C19.9878641,17.5092233 20.0504854,16.4839806 20.1276699,15.4805825 L20.1276699,15.4805825 Z M32.892233,19.8 C35.076699,20.9402913 37.138835,22.1169903 39.0320388,23.3009709 C37.0311394,24.5463481 34.9830197,25.7142038 32.892233,26.8019417 C32.9680297,24.4685765 32.9680297,22.1333652 32.892233,19.8 L32.892233,19.8 Z M19.1461165,26.8019417 C17.0553298,25.7142038 15.0072101,24.5463481 13.0063107,23.3009709 C15.0072101,22.0555937 17.0553298,20.8877379 19.1461165,19.8 C19.0703198,22.1333652 19.0703198,24.4685765 19.1461165,26.8019417 L19.1461165,26.8019417 Z M26.9592233,16.1169903 C28.5580431,15.440467 30.1746384,14.8067461 31.8072816,14.2165049 C31.9325243,15.618932 32.0300971,17.0679612 32.0985437,18.5519417 C30.4071416,17.6952503 28.693439,16.8833175 26.9592233,16.1169903 L26.9592233,16.1169903 Z" id="Shape" fill="#6759FF"></path>
        </g>
    </g>
</svg>